# xmcd
#
# Track frame offsets: 
#        150
#        14737
#        25887
#        37625
#        42575
#        53525
#        61687
#        78312
#        91225
#        107475
#        114412
#        123837
#        132650
#        146762
#
# Disc length: 2126 seconds
#
# Revision: 0
# Processed by: cddbd v1.4PL0 Copyright (c) Steve Scherf et al.
# Submitted via: ExactAudioCopy v0.90b4
#
DISCID=b0084c0e
DTITLE=marlene dietrich - es gibt im leben manchmal momente
DYEAR=1900
DGENRE=Chanson
TTITLE0=ja, das haben die mädchen so gerne
TTITLE1=das ist berlin wie's weint, das ist berlin wie's lacht
TTITLE2=das war in schöneberg
TTITLE3=du hast ja keine ahnung, wie schön du bist berlin
TTITLE4=durch berlin fliesst immer noch die spree
TTITLE5=es gibt im leben manchmal momente
TTITLE6=lieber leierkastenmann
TTITLE7=mit dir, mit dir da möcht ich sonntags angeln gehn
TTITLE8=nach meine beene ist ja ganz berlin verrückt
TTITLE9=solang noch untern linden
TTITLE10=wenn du einmal eine braut hast
TTITLE11=wenn ein mädel einen herrn hat
TTITLE12=lili marlen
TTITLE13=la vie en rose
EXTD=
EXTT0=
EXTT1=
EXTT2=
EXTT3=
EXTT4=
EXTT5=
EXTT6=
EXTT7=
EXTT8=
EXTT9=
EXTT10=
EXTT11=
EXTT12=
EXTT13=
PLAYORDER=
